<?xml version="1.0" encoding="UTF-8"?>
<!DOCTYPE svg PUBLIC "-//W3C//DTD SVG 1.1//EN" "http://www.w3.org/Graphics/SVG/1.1/DTD/svg11.dtd">
<svg xmlns="http://www.w3.org/2000/svg" version="1.1" width="108px" height="84px" style="shape-rendering:geometricPrecision; text-rendering:geometricPrecision; image-rendering:optimizeQuality; fill-rule:evenodd; clip-rule:evenodd" xmlns:xlink="http://www.w3.org/1999/xlink">
<g><path style="opacity:1" fill="#fefffe" d="M 1.5,1.5 C 9.5,1.5 17.5,1.5 25.5,1.5C 25.5,4.16667 25.5,6.83333 25.5,9.5C 52.1667,9.5 78.8333,9.5 105.5,9.5C 105.5,12.1667 105.5,14.8333 105.5,17.5C 78.8333,17.5 52.1667,17.5 25.5,17.5C 25.5,20.1667 25.5,22.8333 25.5,25.5C 17.5,25.5 9.5,25.5 1.5,25.5C 1.5,17.5 1.5,9.5 1.5,1.5 Z M 9.5,9.5 C 12.1667,9.5 14.8333,9.5 17.5,9.5C 17.5,12.1667 17.5,14.8333 17.5,17.5C 14.8333,17.5 12.1667,17.5 9.5,17.5C 9.5,14.8333 9.5,12.1667 9.5,9.5 Z"/></g>
<g><path style="opacity:1" fill="#fefffe" d="M 1.5,37.5 C 36.1667,37.5 70.8333,37.5 105.5,37.5C 105.5,40.1667 105.5,42.8333 105.5,45.5C 70.8333,45.5 36.1667,45.5 1.5,45.5C 1.5,42.8333 1.5,40.1667 1.5,37.5 Z"/></g>
<g><path style="opacity:1" fill="#fefffe" d="M 81.5,57.5 C 89.5,57.5 97.5,57.5 105.5,57.5C 105.5,65.5 105.5,73.5 105.5,81.5C 97.5,81.5 89.5,81.5 81.5,81.5C 81.5,78.8333 81.5,76.1667 81.5,73.5C 54.8333,73.5 28.1667,73.5 1.5,73.5C 1.5,70.8333 1.5,68.1667 1.5,65.5C 28.1667,65.5 54.8333,65.5 81.5,65.5C 81.5,62.8333 81.5,60.1667 81.5,57.5 Z M 89.5,65.5 C 92.1667,65.5 94.8333,65.5 97.5,65.5C 97.5,68.1667 97.5,70.8333 97.5,73.5C 94.8333,73.5 92.1667,73.5 89.5,73.5C 89.5,70.8333 89.5,68.1667 89.5,65.5 Z"/></g>
</svg>
